<?xml version="1.0" standalone="no"?>
<!DOCTYPE svg PUBLIC "-//W3C//DTD SVG 20010904//EN"
 "http://www.w3.org/TR/2001/REC-SVG-20010904/DTD/svg10.dtd">
<svg version="1.0" xmlns="http://www.w3.org/2000/svg"
 width="694.000000pt" height="694.000000pt" viewBox="0 0 694.000000 694.000000"
 preserveAspectRatio="xMidYMid meet">
<metadata>
Created by potrace 1.11, written by Peter Selinger 2001-2013
</metadata>
<g transform="translate(0.000000,694.000000) scale(0.100000,-0.100000)"
fill="#000000" stroke="none">
<path d="M3110 6924 c-198 -21 -278 -34 -480 -79 -221 -49 -551 -171 -759
-282 -326 -172 -583 -364 -866 -648 -396 -398 -667 -827 -830 -1320 -38 -115
-95 -326 -109 -410 -3 -16 -8 -41 -11 -55 -13 -64 -35 -241 -43 -335 -15 -188
-7 -638 13 -770 3 -16 7 -48 9 -70 26 -229 111 -549 212 -799 316 -774 975
-1467 1746 -1836 127 -60 353 -148 457 -176 109 -30 206 -56 226 -60 59 -12
243 -44 283 -50 26 -3 58 -7 72 -10 152 -25 747 -25 879 1 10 2 42 6 72 10 30
3 61 8 69 10 8 2 35 7 60 10 76 11 259 54 383 91 250 73 545 206 765 344 100
63 321 220 379 269 131 112 174 151 289 266 117 115 252 267 324 365 14 18 30
38 35 44 55 60 229 343 306 497 83 166 193 444 214 542 2 10 13 50 23 90 24
86 59 254 67 317 3 25 8 56 10 70 5 25 9 59 23 175 8 77 8 612 0 685 -4 30
-10 82 -13 115 -9 84 -28 202 -50 305 -3 14 -7 34 -9 45 -9 47 -40 158 -73
265 -175 567 -518 1084 -1017 1535 -43 39 -88 78 -99 87 -12 10 -53 42 -92 73
-61 49 -284 202 -356 244 -184 109 -423 217 -637 288 -129 42 -329 95 -409
107 -21 4 -45 9 -53 11 -8 3 -33 7 -55 10 -61 7 -186 24 -230 31 -79 11 -610
10 -725 -2z"/>
</g>
</svg>
